<svg xmlns="http://www.w3.org/2000/svg" xmlns:xlink="http://www.w3.org/1999/xlink" width="500" zoomAndPan="magnify" viewBox="0 0 375 374.999991" height="500" preserveAspectRatio="xMidYMid meet" version="1.0"><defs><clipPath id="m94ead73b39"><path d="M 207.519531 146.027344 L 256.824219 146.027344 L 256.824219 197.449219 L 207.519531 197.449219 Z M 207.519531 146.027344 " clip-rule="nonzero"/></clipPath><clipPath id="m77c85067ae"><path d="M 232.171875 146.027344 C 218.558594 146.027344 207.519531 157.496094 207.519531 171.644531 C 207.519531 185.789062 218.558594 197.257812 232.171875 197.257812 C 245.785156 197.257812 256.824219 185.789062 256.824219 171.644531 C 256.824219 157.496094 245.785156 146.027344 232.171875 146.027344 Z M 232.171875 146.027344 " clip-rule="nonzero"/></clipPath><clipPath id="m1cdd6a35cb"><path d="M 196.042969 201.207031 L 269.875 201.207031 L 269.875 306 L 196.042969 306 Z M 196.042969 201.207031 " clip-rule="nonzero"/></clipPath><clipPath id="ma2ef62203c"><path d="M 255.25 217.640625 L 267.914062 258.316406 C 271.371094 269.429688 269.339844 281.523438 262.441406 290.898438 C 255.542969 300.269531 244.597656 305.804688 232.957031 305.804688 C 221.320312 305.804688 210.375 300.269531 203.476562 290.898438 C 196.574219 281.523438 194.542969 269.429688 198.003906 258.316406 L 210.667969 217.640625 C 213.703125 207.878906 222.738281 201.230469 232.957031 201.230469 C 243.179688 201.230469 252.210938 207.878906 255.25 217.640625 Z M 255.25 217.640625 " clip-rule="nonzero"/></clipPath><clipPath id="ma8ce316e0c"><path d="M 105.125 201.207031 L 178.957031 201.207031 L 178.957031 306 L 105.125 306 Z M 105.125 201.207031 " clip-rule="nonzero"/></clipPath><clipPath id="m2eb307c220"><path d="M 164.332031 217.640625 L 176.996094 258.316406 C 180.457031 269.429688 178.425781 281.523438 171.523438 290.898438 C 164.625 300.269531 153.679688 305.804688 142.042969 305.804688 C 130.402344 305.804688 119.457031 300.269531 112.558594 290.898438 C 105.660156 281.523438 103.628906 269.429688 107.085938 258.316406 L 119.75 217.640625 C 122.789062 207.878906 131.820312 201.230469 142.042969 201.230469 C 152.261719 201.230469 161.296875 207.878906 164.332031 217.640625 Z M 164.332031 217.640625 " clip-rule="nonzero"/></clipPath><clipPath id="m05757520cb"><path d="M 117.144531 146.027344 L 166.445312 146.027344 L 166.445312 197.449219 L 117.144531 197.449219 Z M 117.144531 146.027344 " clip-rule="nonzero"/></clipPath><clipPath id="m1818ef25ea"><path d="M 141.792969 146.027344 C 128.179688 146.027344 117.144531 157.496094 117.144531 171.644531 C 117.144531 185.789062 128.179688 197.257812 141.792969 197.257812 C 155.410156 197.257812 166.445312 185.789062 166.445312 171.644531 C 166.445312 157.496094 155.410156 146.027344 141.792969 146.027344 Z M 141.792969 146.027344 " clip-rule="nonzero"/></clipPath><clipPath id="m933799ffa3"><path d="M 137.542969 69.46875 L 245.742188 69.46875 L 245.742188 146 L 137.542969 146 Z M 137.542969 69.46875 " clip-rule="nonzero"/></clipPath><clipPath id="mea46d9e373"><path d="M 203.003906 70.5625 L 203.957031 70.707031 C 210.761719 71.734375 217.355469 73.851562 223.484375 76.980469 L 224.65625 77.582031 C 229.984375 80.300781 234.691406 84.097656 238.476562 88.730469 L 239.066406 89.449219 C 242.4375 93.578125 244.632812 98.539062 245.417969 103.808594 C 246.203125 109.066406 245.449219 114.441406 243.257812 119.28125 L 243.105469 119.617188 C 240.796875 124.707031 237.285156 129.160156 232.871094 132.59375 L 231.878906 133.363281 C 226.78125 137.328125 221.011719 140.347656 214.847656 142.277344 L 213.714844 142.628906 C 206.785156 144.796875 199.566406 145.898438 192.308594 145.898438 L 191.25 145.898438 C 183.992188 145.898438 176.773438 144.796875 169.84375 142.628906 L 168.714844 142.277344 C 162.546875 140.347656 156.777344 137.328125 151.679688 133.363281 L 150.6875 132.59375 C 146.273438 129.160156 142.761719 124.707031 140.453125 119.617188 L 140.300781 119.28125 C 138.109375 114.441406 137.359375 109.066406 138.140625 103.808594 C 138.925781 98.539062 141.121094 93.578125 144.492188 89.449219 L 145.082031 88.730469 C 148.867188 84.097656 153.574219 80.300781 158.902344 77.582031 L 160.074219 76.980469 C 166.207031 73.851562 172.800781 71.734375 179.601562 70.707031 L 180.554688 70.5625 C 187.996094 69.4375 195.5625 69.4375 203.003906 70.5625 Z M 203.003906 70.5625 " clip-rule="nonzero"/></clipPath></defs><g clip-path="url(#m94ead73b39)"><g clip-path="url(#m77c85067ae)"><path fill="#0f0f0e" d="M 207.519531 146.027344 L 256.824219 146.027344 L 256.824219 197.257812 L 207.519531 197.257812 Z M 207.519531 146.027344 " fill-opacity="1" fill-rule="nonzero"/></g></g><g clip-path="url(#m1cdd6a35cb)"><g clip-path="url(#ma2ef62203c)"><path fill="#0f0f0e" d="M 196.042969 201.230469 L 269.875 201.230469 L 269.875 305.804688 L 196.042969 305.804688 Z M 196.042969 201.230469 " fill-opacity="1" fill-rule="nonzero"/></g></g><g clip-path="url(#ma8ce316e0c)"><g clip-path="url(#m2eb307c220)"><path fill="#0f0f0e" d="M 105.125 201.230469 L 178.957031 201.230469 L 178.957031 305.804688 L 105.125 305.804688 Z M 105.125 201.230469 " fill-opacity="1" fill-rule="nonzero"/></g></g><g clip-path="url(#m05757520cb)"><g clip-path="url(#m1818ef25ea)"><path fill="#0f0f0e" d="M 117.144531 146.027344 L 166.445312 146.027344 L 166.445312 197.257812 L 117.144531 197.257812 Z M 117.144531 146.027344 " fill-opacity="1" fill-rule="nonzero"/></g></g><g clip-path="url(#m933799ffa3)"><g clip-path="url(#mea46d9e373)"><path fill="#0f0f0e" d="M 137.542969 69.46875 L 245.742188 69.46875 L 245.742188 145.898438 L 137.542969 145.898438 Z M 137.542969 69.46875 " fill-opacity="1" fill-rule="nonzero"/></g></g><path stroke-linecap="round" transform="matrix(0, 0.75, -0.75, 0, 197.024156, 84.90682)" fill="none" stroke-linejoin="miter" d="M 6.99924 7.000959 L 53.124243 7.000959 " stroke="#ffffff" stroke-width="14" stroke-opacity="1" stroke-miterlimit="4"/><path stroke-linecap="round" transform="matrix(0, 0.75, -0.75, 0, 216.331015, 97.024006)" fill="none" stroke-linejoin="miter" d="M 6.999242 6.998646 L 20.801326 6.998646 " stroke="#ffffff" stroke-width="14" stroke-opacity="1" stroke-miterlimit="4"/><path stroke-linecap="round" transform="matrix(0, 0.75, -0.75, 0, 176.430579, 93.373616)" fill="none" stroke-linejoin="miter" d="M 7.001845 7.001188 L 30.533097 7.001188 " stroke="#ffffff" stroke-width="14" stroke-opacity="1" stroke-miterlimit="4"/></svg>
